<svg xmlns="http://www.w3.org/2000/svg" xmlns:xlink="http://www.w3.org/1999/xlink" version="1.1" x="0px" y="0px" viewBox="0 0 100 125" enable-background="new 0 0 100 100" xml:space="preserve"><path fill="#000000" d="M93.2,74.7L93.2,74.7l-5.3-7.1L75,50.6l0,0l-6.7-8.9l0,0l-3.1-4.1l-4.4,3.3v-4.8h1.5h2.9v-5.5h-2.9h-4.4v0  v-0.8v-4.7v-5.5H55H43.9H24.7H13.6H8.5v5.5v5.5h7.2h0.1v0v0.8v4.8h-4.5v4.9v0.6v0H9.2v5.5H7.8v5.5h3.1v5.6h2v5.4H9.2H6.3v4.5v1v0H5  v5.5h3.5v5.5h5.1h11.1h19.2H55h2.9v-5.5H55h-0.6v-3.8v-1.8v0h1.3v-5.5h3.7h2.9h0v-5.5h0h-1.2v-5.5h-3.3h-0.6v-5.5h1.3v-2.7v-2.9v0  h2.2V41l3.1,4.1l0,0l3.6,4.8l14.7,19.4l0,0l6.7,8.9l0,0l1.8,2.3l4.4-3.3L93.2,74.7z M62.3,30.9h2.4v5h-2.4V30.9z M59.5,58.5h2.4v5  h-2.4V58.5z M56.7,47.5v5H50v-5H56.7z M42.7,42h10.6v5H42.7V42z M39.2,41.5v-5h10.6v5H39.2z M44.2,19.8h10.6v5H44.2V19.8z   M36.4,25.4H47v5H36.4V25.4z M34.1,30.9h10.6v5H34.1V30.9z M15.6,30.4H8.9v-5h6.7V30.4z M13.8,24.9v-5h10.6v5H13.8z M17.2,30.9v5h-1  v-5H17.2z M11.8,36.4h6.7v5h-6.7V36.4z M12.3,47v-5h10.6v5H12.3z M14.4,58.5v5h-1v-5H14.4z M9.5,69.1v-5h10.6v5H9.5z M24.4,80.2  H13.8v-5h10.6V80.2z M26.6,74.6H16v-5h10.6V74.6z M27.3,58H16.7v-5h10.6V58z M29.4,52.5H18.8v-5h10.6V52.5z M31.3,58.5h10.6v5H31.3  V58.5z M39.8,69.1v-5h10.6v5H39.8z M54,69.6v5h-6.7v-5H54z M54.8,75.1v5H44.2v-5H54.8z M57.6,53v5H47v-5H57.6z M70.6,53.5l-6.4-8.5  l4-3l6.4,8.5L70.6,53.5z M88.9,77.7l-6.4-8.5l4-3l6.4,8.5L88.9,77.7z"/><text x="0" y="115" fill="#000000" font-size="5px" font-weight="bold" font-family="'Helvetica Neue', Helvetica, Arial-Unicode, Arial, Sans-serif">Created by Egorova Valentina</text><text x="0" y="120" fill="#000000" font-size="5px" font-weight="bold" font-family="'Helvetica Neue', Helvetica, Arial-Unicode, Arial, Sans-serif">from the Noun Project</text></svg>