<svg xmlns="http://www.w3.org/2000/svg" xmlns:xlink="http://www.w3.org/1999/xlink" version="1.1" x="0px" y="0px" viewBox="0 0 100 125" enable-background="new 0 0 100 100" xml:space="preserve"><path d="M65.37,30.341c-0.466-1.108-1.422-2.132-2.838-3.042l-0.128-0.078h-0.001c-0.052-0.032-0.104-0.065-0.157-0.097l0.058-0.021  l-1.026-0.505c-0.002-0.001-0.003-0.002-0.005-0.003c-0.062-0.03-0.124-0.06-0.185-0.09c-0.003-0.001-0.005-0.002-0.007-0.004  c-2.021-0.963-4.565-1.659-7.381-2.02c-0.062-0.008-0.124-0.015-0.185-0.023c-0.374-0.049-0.76-0.091-1.154-0.129  c-2.197-0.197-4.582-0.196-6.92,0.021c-0.392,0.039-0.778,0.081-1.155,0.135c-2.858,0.37-5.424,1.082-7.441,2.062l-0.001-0.001  l-0.133,0.068c-0.019,0.01-0.04,0.019-0.059,0.029c-0.02,0.01-0.04,0.02-0.059,0.03l-0.953,0.48l0.055,0.02  c-0.099,0.061-0.195,0.122-0.291,0.184c-1.35,0.874-2.274,1.873-2.744,2.967c-0.102,0.234-0.181,0.47-0.238,0.716l-0.023-0.001  l-0.053,0.428c-0.001,0.01-0.003,0.02-0.004,0.03v0.002c-0.001,0.009-0.002,0.016-0.003,0.025l-0.06,0.498l0.039,0.002  c0.022,1.201,0.592,2.361,1.66,3.399l-0.055,0.016l0.73,0.57c0.008,0.007,0.015,0.013,0.023,0.018l0.001,0.001  c0.006,0.005,0.012,0.009,0.017,0.014l0.184,0.143l0.004-0.002c0.283,0.209,0.606,0.422,0.98,0.648  c1.652,0.963,3.809,1.733,6.234,2.225c0.41,0.087,0.833,0.162,1.256,0.226c1.789,0.289,3.692,0.436,5.659,0.436  c1.866,0,3.69-0.134,5.419-0.398c0.431-0.064,0.856-0.139,1.271-0.219c2.593-0.504,4.86-1.309,6.556-2.328  c0.438-0.266,0.819-0.529,1.167-0.806c1.492-1.18,2.281-2.569,2.281-4.016c0-0.148-0.006-0.29-0.024-0.427  C65.641,31.132,65.536,30.735,65.37,30.341z M61.575,34.785c-0.352,0.232-0.764,0.463-1.225,0.688  c-1.525,0.747-3.492,1.343-5.694,1.724c-0.404,0.072-0.817,0.134-1.242,0.187c-2.928,0.39-6.155,0.378-9.038-0.032  c-0.42-0.057-0.829-0.12-1.238-0.198c-2.034-0.366-3.888-0.932-5.368-1.638c-0.415-0.194-0.799-0.401-1.139-0.615l-0.22-0.142  c-0.96-0.634-2.048-1.615-2.048-2.809c0-0.035,0.001-0.068,0.002-0.101l0.067-0.413c0.05-0.2,0.134-0.4,0.253-0.606  c0.427-0.751,1.292-1.494,2.502-2.146c0.393-0.212,0.819-0.414,1.265-0.602l0.057-0.024c1.716-0.715,3.83-1.248,6.133-1.546v0.001  l0.69-0.085c0.253-0.028,0.508-0.053,0.763-0.077c1.831-0.152,3.739-0.16,5.605-0.016c0.364,0.03,0.729,0.065,1.139,0.107  l-0.001,0.003c2.398,0.268,4.633,0.795,6.475,1.528l0.127,0.051l0.002,0.001c0.457,0.184,0.894,0.388,1.302,0.608  c1.264,0.67,2.162,1.433,2.601,2.211c0.163,0.284,0.263,0.571,0.299,0.871c0.012,0.076,0.015,0.156,0.015,0.237  C63.659,33.171,62.527,34.164,61.575,34.785z"/><path d="M94.881,44.847c-0.099-0.663-0.277-1.306-0.524-1.948c-0.415-1.078-1.038-2.122-1.83-3.128v-7.821  c0-0.485-0.04-0.969-0.119-1.444c-0.099-0.663-0.277-1.306-0.524-1.948c-1.187-3.086-3.986-5.904-8.011-8.288  c-0.732-0.425-1.503-0.851-2.314-1.246c-5.509-2.73-12.798-4.747-21.135-5.717c-0.702-0.079-1.414-0.158-2.136-0.218  c-2.977-0.277-6.082-0.425-9.277-0.425c-3.343,0-6.587,0.158-9.692,0.465c-0.722,0.069-1.424,0.138-2.126,0.228h-0.01  c-8.258,0.999-15.458,3.026-20.898,5.756c-0.811,0.406-1.572,0.821-2.304,1.256c-3.926,2.354-6.656,5.123-7.833,8.159  c-0.247,0.643-0.425,1.286-0.524,1.948c-0.089,0.485-0.129,0.979-0.129,1.474v8.901c0,2.295,0.88,4.481,2.473,6.507c0,0,0,0,0,0  v4.675c-1.026,1.177-1.817,2.41-2.314,3.693c-0.247,0.643-0.425,1.286-0.524,1.948C5.04,58.159,5,58.654,5,59.148v8.901  c0,6.785,7.536,12.649,19.187,16.081c0.702,0.208,1.404,0.405,2.136,0.593h0.01c1.711,0.445,3.501,0.831,5.37,1.167  c0.653,0.119,1.306,0.227,1.978,0.336c4.609,0.722,9.603,1.108,14.835,1.108c4.925,0,9.643-0.346,14.024-0.989  c0.603-0.089,1.207-0.178,1.8-0.287c2.077-0.346,4.065-0.761,5.964-1.236c0.732-0.188,1.454-0.376,2.156-0.583h0.01  c4.263-1.226,7.981-2.769,11.008-4.569c0.396-0.237,0.771-0.475,1.137-0.722c4.698-3.076,7.418-6.814,7.418-10.899v-5.728  C93.951,60.128,95,57.727,95,55.192v-8.901C95,45.807,94.96,45.322,94.881,44.847z M7.116,57.793  c0.119-0.653,0.346-1.306,0.653-1.938c0.063-0.13,0.147-0.258,0.217-0.388c-0.003-0.092-0.019-0.183-0.019-0.275  c0,0.909,0.145,1.799,0.407,2.671L7.116,57.793z M33.681,84.17c-0.663-0.109-1.325-0.227-1.978-0.356  c-1.296-0.237-2.562-0.514-3.788-0.821c-0.742-0.168-1.454-0.366-2.166-0.564h-0.01c-4.322-1.207-8.09-2.74-11.097-4.5  c-0.702-0.415-1.365-0.841-1.978-1.286v-6.429c0.287,0.188,0.574,0.366,0.87,0.544c0.356,0.208,0.732,0.415,1.108,0.623  c4.302,2.354,9.851,4.233,16.249,5.459c0.267,0.049,0.534,0.099,0.811,0.148c0.495,0.089,0.989,0.178,1.503,0.257  c0.148,0.03,0.307,0.049,0.475,0.079V84.17z M15.137,50.732c-0.702-0.415-1.365-0.841-1.978-1.286v-6.429  c0.287,0.188,0.574,0.366,0.87,0.544c0.356,0.208,0.732,0.415,1.108,0.623c4.302,2.354,9.851,4.233,16.249,5.459  c0.267,0.049,0.534,0.099,0.811,0.148c0.495,0.089,0.989,0.178,1.503,0.257c0.148,0.03,0.307,0.049,0.475,0.079v6.844  c-0.663-0.109-1.325-0.227-1.978-0.356c-1.296-0.237-2.562-0.514-3.788-0.821c-0.742-0.168-1.454-0.366-2.166-0.564h-0.01  C21.912,54.025,18.144,52.492,15.137,50.732z M16.502,57.902c0.356,0.208,0.732,0.415,1.108,0.623  c4.302,2.354,9.851,4.233,16.249,5.459c0.267,0.049,0.534,0.099,0.811,0.148c0.495,0.089,0.989,0.178,1.503,0.257  c0.148,0.03,0.307,0.049,0.475,0.079v6.844c-0.663-0.109-1.325-0.227-1.978-0.356c-1.296-0.237-2.562-0.514-3.788-0.821  c-0.742-0.168-1.454-0.366-2.166-0.564h-0.01c-4.322-1.207-8.09-2.74-11.097-4.5c-0.702-0.415-1.365-0.841-1.978-1.286v-6.429  C15.919,57.546,16.206,57.724,16.502,57.902z M36.761,73.386l-1.902,2.072c-0.791-0.119-1.573-0.247-2.334-0.386h-0.01  c-6.34-1.137-11.918-2.927-16.23-5.143c-0.851-0.435-1.642-0.89-2.383-1.355l3.742-1.131c2.712,1.479,5.913,2.772,9.51,3.831  c0.702,0.208,1.404,0.405,2.136,0.593h0.01c1.711,0.445,3.501,0.831,5.37,1.167c0.653,0.119,1.306,0.227,1.978,0.336  c0.038,0.006,0.078,0.01,0.116,0.016C36.763,73.386,36.762,73.386,36.761,73.386z M37.825,62.6  c-0.791-0.119-1.573-0.247-2.334-0.386h-0.01c-6.34-1.137-11.918-2.927-16.23-5.143c-0.851-0.435-1.642-0.89-2.383-1.355  l2.342-0.708c1.702,0.703,3.523,1.35,5.472,1.924c0.702,0.208,1.404,0.405,2.136,0.593h0.01c1.711,0.445,3.501,0.831,5.37,1.167  c0.653,0.119,1.306,0.227,1.978,0.336c2.011,0.315,4.107,0.553,6.252,0.736L37.825,62.6z M60.409,74.072  c1.738-0.155,3.449-0.34,5.099-0.583c0.603-0.089,1.207-0.178,1.8-0.287c2.077-0.346,4.065-0.761,5.964-1.236  c0.732-0.188,1.454-0.376,2.156-0.583h0.01c2.885-0.83,5.514-1.808,7.855-2.91c0,0,0,0,0,0l0.008,0.002  c-0.742,0.465-1.533,0.92-2.374,1.355c-4.431,2.314-10.236,4.164-16.833,5.311c-0.771,0.138-1.563,0.267-2.354,0.376L60.409,74.072z   M63.035,59.148c0.603-0.089,1.207-0.178,1.8-0.287c2.077-0.346,4.065-0.761,5.964-1.236c0.732-0.188,1.454-0.376,2.156-0.583h0.01  c2.971-0.855,5.671-1.867,8.063-3.009c0,0-0.001,0-0.001,0.001l5.24,1.584c-0.742,0.465-1.533,0.92-2.374,1.355  c-4.431,2.314-10.236,4.164-16.833,5.311c-0.771,0.138-1.563,0.267-2.354,0.376l-3.07-3.333  C62.102,59.266,62.578,59.215,63.035,59.148z M62.857,57.131v-6.854c0.346-0.049,0.702-0.109,1.038-0.158  c0.316-0.049,0.633-0.099,0.94-0.158c0.465-0.069,0.93-0.158,1.385-0.237h0.01c6.696-1.246,12.471-3.204,16.902-5.667  c0.356-0.198,0.692-0.396,1.029-0.593c0.326-0.208,0.643-0.406,0.949-0.613v6.419c-0.613,0.455-1.276,0.89-1.978,1.315  c-3.135,1.879-7.141,3.501-11.74,4.757c-0.712,0.198-1.444,0.386-2.186,0.554c-1.404,0.346-2.868,0.643-4.371,0.91  C64.182,56.923,63.53,57.032,62.857,57.131z M84.615,76.466c-0.613,0.455-1.276,0.89-1.978,1.315  c-3.135,1.879-7.141,3.501-11.74,4.757c-0.712,0.198-1.444,0.386-2.186,0.554c-1.404,0.346-2.868,0.643-4.371,0.91  c-0.653,0.119-1.306,0.227-1.978,0.326v-6.854c0.346-0.049,0.702-0.109,1.038-0.158c0.316-0.049,0.633-0.099,0.94-0.158  c0.465-0.069,0.93-0.158,1.385-0.237h0.01c6.696-1.246,12.471-3.204,16.902-5.667c0.356-0.198,0.692-0.396,1.029-0.593  c0.326-0.208,0.643-0.406,0.949-0.613V76.466z M87.582,63.609c-0.613,0.455-1.276,0.89-1.978,1.315  c-3.135,1.879-7.141,3.501-11.74,4.757c-0.712,0.198-1.444,0.386-2.186,0.554c-1.404,0.346-2.868,0.643-4.371,0.91  c-0.653,0.119-1.306,0.227-1.978,0.326v-6.854c0.346-0.049,0.702-0.109,1.038-0.158c0.316-0.049,0.633-0.099,0.94-0.158  c0.465-0.069,0.93-0.158,1.385-0.237h0.01c6.696-1.246,12.471-3.204,16.902-5.667c0.356-0.198,0.692-0.396,1.029-0.593  c0.326-0.208,0.643-0.406,0.949-0.613V63.609z M79.265,31.248c0.03,0.237,0.04,0.465,0.04,0.702c0,2.482-1.414,4.807-3.917,6.785  l8.407,2.542c-0.742,0.465-1.533,0.92-2.374,1.355c-4.431,2.314-10.236,4.164-16.833,5.311c-0.771,0.138-1.563,0.267-2.354,0.376  l-3.224-3.501c-3.115,0.475-6.478,0.732-9.999,0.732c-3.679,0-7.19-0.277-10.434-0.801l-3.224,3.511  c-0.791-0.119-1.573-0.247-2.334-0.386h-0.01c-6.34-1.137-11.918-2.927-16.23-5.143c-0.851-0.435-1.642-0.89-2.383-1.355  l8.377-2.532c-2.581-2.008-4.055-4.371-4.055-6.893c0-0.247,0.01-0.485,0.04-0.732L7.611,30.596  c0.119-0.653,0.346-1.306,0.653-1.938c1.306-2.71,4.203-5.222,8.238-7.338h0.01c0.781-0.415,1.602-0.811,2.473-1.197l7.329,2.73  c3.669-1.849,8.486-3.234,13.985-3.946l-2.047-3.649c0.702-0.079,1.414-0.158,2.136-0.218h0.01c2.789-0.257,5.667-0.396,8.614-0.396  c2.799,0,5.548,0.119,8.209,0.356c0.722,0.059,1.434,0.129,2.146,0.208l-2.047,3.649c5.578,0.682,10.464,2.057,14.212,3.907  l7.309-2.73c0.87,0.386,1.701,0.781,2.492,1.187c4.144,2.146,7.111,4.698,8.436,7.457c0.307,0.633,0.524,1.286,0.653,1.938  L79.265,31.248z M91.537,45.033c0.311-0.646,0.555-1.305,0.72-1.976c0.297,0.621,0.511,1.26,0.637,1.899L91.537,45.033z"/><text x="0" y="115" fill="#000000" font-size="5px" font-weight="bold" font-family="'Helvetica Neue', Helvetica, Arial-Unicode, Arial, Sans-serif">Created by Claire Jones</text><text x="0" y="120" fill="#000000" font-size="5px" font-weight="bold" font-family="'Helvetica Neue', Helvetica, Arial-Unicode, Arial, Sans-serif">from the Noun Project</text></svg>